<?xml version="1.0" encoding="UTF-8" standalone="no"?>
<!-- Created with Inkscape (http://www.inkscape.org/) -->

<svg
   width="100"
   height="48"
   viewBox="0 0 26.458333 12.7"
   version="1.1"
   id="svg5"
   inkscape:version="1.2.2 (732a01da63, 2022-12-09)"
   sodipodi:docname="button.svg"
   xml:space="preserve"
   xmlns:inkscape="http://www.inkscape.org/namespaces/inkscape"
   xmlns:sodipodi="http://sodipodi.sourceforge.net/DTD/sodipodi-0.dtd"
   xmlns:xlink="http://www.w3.org/1999/xlink"
   xmlns="http://www.w3.org/2000/svg"
   xmlns:svg="http://www.w3.org/2000/svg"><sodipodi:namedview
     id="namedview7"
     pagecolor="#ffffff"
     bordercolor="#666666"
     borderopacity="1.0"
     inkscape:showpageshadow="2"
     inkscape:pageopacity="0.0"
     inkscape:pagecheckerboard="0"
     inkscape:deskcolor="#d1d1d1"
     inkscape:document-units="px"
     showgrid="false"
     inkscape:zoom="0.70710678"
     inkscape:cx="12.020815"
     inkscape:cy="-145.664"
     inkscape:window-width="2004"
     inkscape:window-height="1246"
     inkscape:window-x="1438"
     inkscape:window-y="472"
     inkscape:window-maximized="0"
     inkscape:current-layer="layer1"><inkscape:grid
       type="xygrid"
       id="grid140"
       originx="0"
       originy="0" /></sodipodi:namedview><defs
     id="defs2"><linearGradient
       inkscape:collect="always"
       id="linearGradient3089"><stop
         style="stop-color:#f5f8fa;stop-opacity:1"
         offset="0"
         id="stop3085" /><stop
         style="stop-color:#ebf0f4;stop-opacity:1"
         offset="1"
         id="stop3087" /></linearGradient><linearGradient
       inkscape:collect="always"
       xlink:href="#linearGradient3089"
       id="linearGradient3091"
       x1="31.75"
       y1="1.3229166"
       x2="31.75"
       y2="11.90625"
       gradientUnits="userSpaceOnUse" /></defs><g
     inkscape:label="Layer 1"
     inkscape:groupmode="layer"
     id="layer1"><rect
       style="fill:url(#linearGradient3091);fill-opacity:1;stroke:#d3d3d3;stroke-width:0.529167;stroke-linecap:square;stroke-linejoin:round;stroke-dasharray:none;stroke-opacity:1"
       id="rect244"
       width="23.8125"
       height="10.583333"
       x="1.3229166"
       y="1.3229166"
       ry="1.6570144" /><path
       fill-rule="evenodd"
       clip-rule="evenodd"
       d="m 6.718371,3.5879692 c -1.7034096,0 -3.0804502,1.3871922 -3.0804502,3.1033383 0,1.3718071 0.8823174,2.533013 2.1063253,2.9440005 0.1530327,0.030893 0.2090877,-0.066775 0.2090877,-0.1489337 0,-0.071946 -0.00508,-0.3185505 -0.00508,-0.5754963 C 5.091383,9.0958793 4.9129396,8.5409392 4.9129396,8.5409392 4.7752293,8.1812781 4.5711859,8.0888407 4.5711859,8.0888407 4.2907208,7.8987322 4.5916155,7.8987322 4.5916155,7.8987322 4.9027248,7.9192872 5.0659721,8.2172821 5.0659721,8.2172821 5.3413301,8.6899362 5.7850425,8.5563875 5.9635485,8.4741647 5.9890225,8.2737787 6.0706777,8.1350593 6.1573776,8.058007 5.4739326,7.9860623 4.7548628,7.7189016 4.7548628,6.526862 c 0,-0.3391054 0.1223251,-0.6165438 0.3161537,-0.8323154 -0.030581,-0.077052 -0.1377103,-0.3956649 0.030645,-0.8221004 0,0 0.2600982,-0.082223 0.8465656,0.3185497 A 2.9616556,2.9616556 0 0 1 6.718371,5.0882176 c 0.260098,0 0.5252408,0.036004 0.7700802,0.1027783 0.5865305,-0.4007725 0.8466293,-0.3185497 0.8466293,-0.3185497 0.1683543,0.4264355 0.061163,0.7450482 0.030578,0.8221004 0.1989361,0.2157716 0.316217,0.49321 0.316217,0.8323154 0,1.1920396 -0.7190699,1.4540299 -1.4076212,1.531145 0.1122355,0.097608 0.2090877,0.2825459 0.2090877,0.5754328 0,0.4161577 -0.00508,0.7501559 -0.00508,0.8528704 0,0.082222 0.056116,0.1798938 0.2090877,0.1490611 C 8.9113619,9.2242574 9.7936777,8.0631146 9.7936777,6.6913075 9.7987547,4.9751614 8.4166393,3.5879692 6.7183383,3.5879692 Z"
       fill="#24292f"
       id="path5117"
       style="stroke-width:0.0630541" /><text
       xml:space="preserve"
       style="font-style:normal;font-variant:normal;font-weight:normal;font-stretch:normal;font-size:5.64444px;line-height:1.25;font-family:'Segoe UI';-inkscape-font-specification:'Segoe UI';fill:#000000;fill-opacity:1;stroke:none;stroke-width:0.264583"
       x="11.884462"
       y="8.7547531"
       id="text6269"><tspan
         sodipodi:role="line"
         id="tspan6267"
         style="font-style:normal;font-variant:normal;font-weight:normal;font-stretch:normal;font-size:5.64444px;font-family:'Segoe UI';-inkscape-font-specification:'Segoe UI';stroke-width:0.264583"
         x="11.884462"
         y="8.7547531">Edit</tspan></text></g></svg>
